<?xml version="1.0" encoding="UTF-8" ?>
<!DOCTYPE svg PUBLIC "-//W3C//DTD SVG 1.1//EN" "http://www.w3.org/Graphics/SVG/1.1/DTD/svg11.dtd">
<svg width="671pt" height="302pt" viewBox="0 0 671 302" version="1.1" xmlns="http://www.w3.org/2000/svg">
<g id="#e84c0fff">
<path fill="#e84c0f" opacity="1.00" d=" M 468.46 10.43 C 472.29 9.66 475.58 7.51 479.15 6.08 C 481.64 5.92 484.21 5.73 486.66 6.26 C 491.91 8.88 495.19 13.93 498.60 18.48 C 499.42 21.47 500.75 24.27 501.88 27.15 C 501.93 34.82 503.58 42.35 504.00 49.99 C 503.76 53.11 505.27 56.12 504.36 59.22 C 504.82 66.79 502.77 74.25 502.81 81.83 C 500.43 86.87 501.19 92.73 498.86 97.79 C 497.84 100.60 495.93 102.96 494.87 105.75 C 493.28 109.95 491.92 114.46 488.82 117.83 C 478.81 131.30 469.24 145.11 458.73 158.21 C 462.75 156.15 465.39 152.32 468.98 149.69 C 474.55 145.38 479.30 140.05 485.34 136.35 C 489.04 134.49 491.67 131.16 495.53 129.50 C 502.36 123.40 510.63 119.47 518.97 115.90 C 526.84 112.96 535.17 111.59 543.15 109.06 C 550.06 108.35 557.10 109.63 563.95 108.11 C 567.85 109.31 571.85 110.13 575.79 111.16 C 579.27 112.81 582.95 114.08 586.77 114.66 C 589.73 115.51 591.99 117.84 594.72 119.22 C 598.87 121.28 601.15 125.51 604.38 128.64 C 607.56 132.16 611.80 134.55 614.66 138.38 C 619.09 144.31 623.17 150.49 627.63 156.41 C 631.24 162.56 634.45 168.95 637.78 175.26 C 642.56 182.96 644.06 192.08 647.77 200.26 C 649.43 203.73 649.80 207.62 650.87 211.29 C 654.24 223.15 656.32 235.31 659.19 247.29 C 659.99 253.15 661.67 258.85 662.19 264.76 C 662.52 268.32 662.77 271.91 663.69 275.39 C 664.82 279.22 663.48 283.34 664.88 287.12 C 663.15 288.55 663.14 290.77 663.61 292.78 C 662.16 294.49 660.94 296.36 659.80 298.28 C 657.84 294.67 655.17 291.46 651.13 290.19 C 648.84 291.81 648.99 294.41 650.02 296.74 C 647.84 296.82 645.93 297.72 644.69 299.54 C 642.17 297.47 641.98 294.30 642.43 291.31 C 641.01 287.26 641.78 282.74 641.05 278.51 C 639.11 269.11 638.34 259.49 636.18 250.12 C 634.39 240.62 632.58 231.08 630.21 221.69 C 627.90 216.11 627.94 209.92 625.62 204.35 C 623.53 198.50 621.60 192.57 619.06 186.90 C 615.23 180.32 612.46 173.16 608.09 166.90 C 605.17 163.07 602.62 158.98 600.09 154.89 C 598.08 151.21 594.12 149.55 591.28 146.72 C 588.16 142.25 584.15 138.41 579.75 135.22 C 576.42 134.35 572.96 133.86 569.84 132.31 C 567.64 131.54 565.13 130.18 562.81 130.96 C 559.17 133.59 555.01 129.97 551.04 131.06 C 540.93 133.06 530.14 132.93 520.82 137.82 C 517.45 139.23 515.15 142.26 511.91 143.90 C 506.63 146.82 502.13 150.90 496.91 153.91 C 489.38 160.37 481.49 166.47 474.71 173.74 C 467.71 179.56 461.53 186.72 458.58 195.46 C 458.07 200.26 458.25 205.41 455.80 209.75 C 454.32 211.39 452.07 212.15 450.04 212.87 C 447.35 212.81 444.83 211.72 442.42 210.64 C 435.03 202.59 438.48 190.92 435.56 181.26 C 433.41 180.21 432.69 183.32 430.94 183.96 C 424.39 187.67 418.17 191.90 411.63 195.62 C 407.87 198.02 403.44 198.88 399.31 200.39 C 394.85 202.72 389.69 202.47 384.97 203.98 C 379.45 203.11 374.00 201.51 368.36 201.56 C 365.10 200.10 361.79 198.78 358.45 197.56 C 354.43 194.30 349.35 192.92 345.27 189.79 C 340.59 186.43 335.55 183.34 331.87 178.83 C 329.79 179.01 328.65 180.99 327.27 182.29 C 323.98 186.32 320.56 190.30 316.64 193.74 C 311.63 195.73 305.64 197.05 300.62 194.42 C 297.55 192.76 293.60 192.57 291.42 189.54 C 285.75 184.43 279.27 180.29 272.97 176.00 C 267.71 171.57 262.68 166.64 256.35 163.74 C 251.77 161.97 247.93 158.78 243.58 156.57 C 240.10 155.20 236.48 154.23 232.95 153.02 C 229.72 151.73 226.32 153.16 223.13 153.82 C 220.52 154.64 217.69 154.39 215.12 155.25 C 206.39 159.66 199.01 166.46 193.64 174.61 C 188.70 180.66 187.42 188.52 184.73 195.64 C 183.68 197.93 184.19 200.45 184.33 202.87 C 184.35 209.19 184.49 215.54 184.80 221.82 C 183.84 224.79 183.42 227.87 183.53 230.98 C 182.93 233.63 182.03 236.37 182.77 239.09 C 182.25 239.96 181.53 240.78 181.56 241.86 C 181.28 246.24 179.96 250.57 180.86 254.96 C 180.33 258.96 179.23 262.97 179.69 267.04 C 179.11 273.82 177.97 280.61 174.79 286.72 C 172.86 287.15 171.09 288.29 169.13 288.50 C 165.63 287.64 161.41 286.87 159.62 283.33 C 155.26 276.59 158.62 268.44 157.65 261.03 C 156.64 256.48 158.48 252.07 158.11 247.51 C 157.78 243.50 158.74 239.53 158.44 235.53 C 158.20 232.65 159.30 229.70 158.18 226.90 C 159.66 224.88 159.52 222.43 159.37 220.07 C 159.99 212.06 162.47 204.34 163.56 196.40 C 164.14 187.20 161.29 178.34 159.45 169.44 C 156.54 159.25 153.01 149.18 148.40 139.62 C 143.16 139.03 138.04 140.88 132.81 140.87 C 126.38 142.05 120.04 143.63 113.84 145.79 C 108.37 146.53 104.39 150.70 99.23 152.25 C 94.04 154.03 89.75 157.63 84.74 159.80 C 78.29 163.56 71.86 167.38 65.84 171.81 C 60.29 176.30 53.28 178.99 48.71 184.64 C 45.54 188.52 41.09 191.09 38.08 195.11 C 33.01 198.48 28.90 203.10 23.73 206.35 C 18.10 207.34 13.04 210.27 7.81 212.47 C 5.92 212.32 4.06 212.01 2.17 211.84 C 1.81 210.58 1.43 209.33 1.03 208.09 C 3.94 205.15 8.01 203.84 10.98 201.00 C 13.73 197.71 17.36 195.34 20.48 192.43 C 28.83 184.82 37.00 177.00 44.92 168.95 C 58.80 156.48 73.26 144.19 90.31 136.25 C 102.35 129.40 115.61 125.13 129.03 121.97 C 134.37 120.78 140.38 121.69 145.18 118.87 C 149.03 121.03 153.65 120.53 157.63 122.30 C 162.24 125.86 165.50 130.73 168.23 135.80 C 170.70 144.42 173.78 152.97 177.49 161.18 C 181.09 155.99 184.58 150.53 189.74 146.73 C 195.15 142.67 200.62 138.29 207.02 135.99 C 214.44 135.61 221.18 130.94 228.73 132.19 C 233.61 132.42 238.33 133.79 243.13 134.57 C 251.80 137.44 259.14 143.06 267.57 146.45 C 269.63 148.48 272.04 150.04 274.57 151.42 C 284.02 158.80 293.85 165.63 303.14 173.21 C 305.48 171.17 307.52 168.83 309.81 166.74 C 312.96 164.14 316.73 162.31 319.71 159.53 C 320.29 156.90 319.04 154.24 318.50 151.68 C 317.62 148.36 320.12 145.19 319.25 141.92 C 321.54 137.96 322.24 133.34 324.15 129.21 C 327.86 128.14 331.83 127.72 335.41 126.41 C 337.06 128.29 339.93 127.78 341.75 129.24 C 343.28 131.86 345.35 134.04 347.33 136.30 C 348.04 139.23 348.73 142.16 349.71 145.02 C 349.98 148.80 348.95 152.50 348.15 156.16 C 347.18 161.11 343.70 164.95 340.95 169.01 C 343.44 171.34 345.73 173.91 348.59 175.80 C 352.74 179.01 357.92 180.34 362.30 183.14 C 369.00 185.11 376.04 185.26 382.86 186.55 C 388.63 185.57 394.23 183.75 399.64 181.56 C 405.29 178.26 410.69 174.54 416.39 171.31 C 420.98 167.26 426.24 163.83 429.66 158.62 C 425.62 139.17 418.78 120.22 417.47 100.29 C 417.94 92.96 417.55 85.61 417.64 78.29 C 419.14 75.86 419.56 73.08 419.78 70.29 C 421.21 64.86 421.27 59.04 423.87 53.96 C 426.65 48.55 428.96 42.69 433.49 38.46 C 439.20 30.44 447.70 25.13 455.67 19.62 C 460.17 16.89 463.86 13.00 468.46 10.43 M 470.02 33.01 C 464.45 35.46 459.16 38.57 454.55 42.56 C 450.38 44.97 447.71 49.10 444.91 52.85 C 438.53 58.30 437.25 67.10 436.54 75.00 C 432.10 85.95 434.73 97.98 434.60 109.42 C 437.07 121.53 440.28 133.51 443.77 145.36 C 446.50 141.61 450.24 138.72 452.73 134.79 C 456.01 129.80 460.07 125.40 463.48 120.50 C 467.16 114.52 470.64 108.41 474.51 102.54 C 477.84 95.08 480.79 87.35 482.12 79.25 C 483.77 74.21 482.30 68.83 483.67 63.75 C 484.36 58.20 483.85 52.58 484.00 47.00 C 483.83 39.93 484.44 32.69 482.95 25.76 C 477.97 26.65 474.55 31.04 470.02 33.01 M 331.11 146.30 C 330.75 148.63 330.77 151.10 332.05 153.18 C 333.93 151.82 337.34 150.88 337.06 148.02 C 337.75 144.66 332.54 143.79 331.11 146.30 Z" />
<path fill="#e84c0f" opacity="1.00" d=" M 586.35 57.29 C 588.80 56.64 591.24 55.87 593.76 55.51 C 596.63 56.59 599.55 57.55 602.50 58.44 C 607.11 63.13 612.90 68.92 611.44 76.11 C 610.71 78.56 609.40 80.91 608.18 83.16 C 605.52 85.27 602.87 87.51 599.82 89.01 C 596.02 88.62 591.67 89.23 588.80 86.17 C 584.32 82.66 583.54 76.74 580.99 71.99 C 581.79 69.95 582.59 67.91 583.88 66.12 C 581.77 62.89 583.90 59.53 586.35 57.29 M 587.86 65.95 C 588.17 67.52 588.56 69.08 588.98 70.63 C 587.47 71.31 586.01 72.10 584.59 72.95 C 587.47 75.29 590.18 78.14 593.85 79.19 C 595.50 79.70 597.83 80.85 598.86 78.72 C 599.09 76.62 599.28 74.41 598.73 72.34 C 596.95 68.23 592.36 65.36 587.86 65.95 Z" />
</g>
</svg>
